<?xml version="1.0" encoding="UTF-8" standalone="no"?>
<!-- Created with Inkscape (http://www.inkscape.org/) -->

<svg
   width="167.44205mm"
   height="66.224922mm"
   viewBox="0 0 167.44205 66.224922"
   version="1.1"
   id="svg287"
   inkscape:version="1.2.2 (b0a8486, 2022-12-01)"
   sodipodi:docname="gwas-svatalog-name-logo.svg"
   xml:space="preserve"
   xmlns:inkscape="http://www.inkscape.org/namespaces/inkscape"
   xmlns:sodipodi="http://sodipodi.sourceforge.net/DTD/sodipodi-0.dtd"
   xmlns="http://www.w3.org/2000/svg"
   xmlns:svg="http://www.w3.org/2000/svg"><sodipodi:namedview
     id="namedview289"
     pagecolor="#ffffff"
     bordercolor="#000000"
     borderopacity="0.25"
     inkscape:showpageshadow="2"
     inkscape:pageopacity="0.0"
     inkscape:pagecheckerboard="0"
     inkscape:deskcolor="#d1d1d1"
     inkscape:document-units="mm"
     showgrid="false"
     inkscape:zoom="0.914906"
     inkscape:cx="278.17065"
     inkscape:cy="-67.22002"
     inkscape:window-width="1390"
     inkscape:window-height="1205"
     inkscape:window-x="553"
     inkscape:window-y="25"
     inkscape:window-maximized="0"
     inkscape:current-layer="layer1" /><defs
     id="defs284" /><g
     inkscape:label="Layer 1"
     inkscape:groupmode="layer"
     id="layer1"
     transform="translate(-6.651412,-120.59299)"><rect
       style="opacity:1;fill:#e9f2f9;stroke-width:1.3;paint-order:markers stroke fill;fill-opacity:1"
       id="rect658"
       width="167.44205"
       height="66.224922"
       x="6.651412"
       y="120.59299" /><g
       id="g5027"
       transform="translate(-12.141038,10.999778)"
       inkscape:transform-center-x="2.5307973"
       inkscape:transform-center-y="3.5460145"><g
         aria-label="GWAS"
         id="text1065"
         style="font-size:31.75px;font-family:Simplifica;-inkscape-font-specification:Simplifica;fill:#666666;stroke:#777171;stroke-width:0;paint-order:markers stroke fill"><path
           d="m 36.979828,143.21163 h 1.04775 v 1.04775 3.20675 3.39725 0.34925 q -0.0635,0.889 -0.4445,1.68275 -0.381,0.762 -1.016,1.3335 -0.60325,0.5715 -1.42875,0.92075 -0.79375,0.3175 -1.68275,0.3175 -0.9525,0 -1.80975,-0.34925 -0.8255,-0.381 -1.4605,-0.98425 -0.60325,-0.635 -0.98425,-1.4605 -0.34925,-0.85725 -0.34925,-1.80975 v -12.54125 q 0,-0.9525 0.34925,-1.778 0.381,-0.85725 0.98425,-1.4605 0.635,-0.635 1.4605,-0.98425 0.85725,-0.381 1.80975,-0.381 0.9525,0 1.778,0.381 0.8255,0.34925 1.42875,0.98425 0.635,0.60325 0.98425,1.4605 0.381,0.8255 0.381,1.778 h -1.04775 q 0,-0.73025 -0.28575,-1.36525 -0.28575,-0.635 -0.762,-1.11125 -0.47625,-0.47625 -1.11125,-0.762 -0.635,-0.28575 -1.36525,-0.28575 -0.73025,0 -1.397,0.28575 -0.635,0.28575 -1.11125,0.762 -0.47625,0.47625 -0.762,1.11125 -0.28575,0.635 -0.28575,1.36525 v 12.54125 q 0,0.73025 0.28575,1.397 0.28575,0.635 0.762,1.11125 0.47625,0.47625 1.11125,0.762 0.66675,0.28575 1.397,0.28575 0.73025,0 1.36525,-0.28575 0.635,-0.28575 1.11125,-0.762 0.47625,-0.47625 0.762,-1.11125 0.28575,-0.66675 0.28575,-1.397 v -3.39725 -3.20675 h -4.318 v -1.04775 z"
           id="path407" /><path
           d="m 57.363303,133.84538 h 1.0795 l -4.6355,21.463 h -1.5875 l -2.88925,-19.14525 -2.8575,19.14525 h -1.5875 l -4.6355,-21.463 h 1.0795 l 4.318,19.90725 2.9845,-19.90725 h 1.42875 l 2.9845,19.90725 z"
           id="path409" /><path
           d="m 67.555011,155.30838 -1.49225,-6.731 h -6.1595 l -1.49225,6.731 h -1.0795 l 4.7625,-21.463 h 1.778 l 4.7625,21.463 z m -7.4295,-7.77875 h 5.715 l -2.8575,-12.827 z"
           id="path411" /><path
           d="m 74.730493,143.97363 q 0.79375,0.635 1.55575,1.3335 0.79375,0.66675 1.397,1.49225 0.635,0.79375 1.016,1.80975 0.381,0.98425 0.381,2.25425 0,0.9525 -0.381,1.80975 -0.34925,0.8255 -0.98425,1.4605 -0.60325,0.60325 -1.42875,0.98425 -0.8255,0.34925 -1.778,0.34925 -0.9525,0 -1.80975,-0.34925 -0.8255,-0.381 -1.4605,-0.98425 -0.60325,-0.635 -0.98425,-1.4605 -0.34925,-0.85725 -0.34925,-1.80975 h 1.04775 q 0,0.73025 0.28575,1.397 0.28575,0.635 0.762,1.11125 0.47625,0.47625 1.11125,0.762 0.66675,0.28575 1.397,0.28575 0.73025,0 1.36525,-0.28575 0.635,-0.28575 1.11125,-0.762 0.47625,-0.47625 0.762,-1.11125 0.28575,-0.66675 0.28575,-1.397 0,-1.0795 -0.34925,-1.93675 -0.3175,-0.85725 -0.889,-1.55575 -0.53975,-0.73025 -1.27,-1.3335 -0.6985,-0.635 -1.4605,-1.23825 -0.762,-0.60325 -1.524,-1.23825 -0.73025,-0.66675 -1.3335,-1.42875 -0.5715,-0.762 -0.9525,-1.68275 -0.34925,-0.92075 -0.34925,-2.12725 0,-0.9525 0.34925,-1.778 0.381,-0.85725 0.98425,-1.4605 0.635,-0.635 1.4605,-0.98425 0.85725,-0.381 1.80975,-0.381 0.9525,0 1.778,0.381 0.8255,0.34925 1.42875,0.98425 0.635,0.60325 0.98425,1.4605 0.381,0.8255 0.381,1.778 h -1.04775 q 0,-0.73025 -0.28575,-1.36525 -0.28575,-0.635 -0.762,-1.11125 -0.47625,-0.47625 -1.11125,-0.762 -0.635,-0.28575 -1.36525,-0.28575 -0.73025,0 -1.397,0.28575 -0.635,0.28575 -1.11125,0.762 -0.47625,0.47625 -0.762,1.11125 -0.28575,0.635 -0.28575,1.36525 0,1.016 0.3175,1.80975 0.3175,0.762 0.8255,1.42875 0.53975,0.66675 1.2065,1.27 0.6985,0.5715 1.42875,1.143 z"
           id="path413" /></g><g
         aria-label="atalog"
         id="text1123"
         style="font-size:31.75px;font-family:Simplifica;-inkscape-font-specification:Simplifica;fill:#666666;stroke:#777171;stroke-width:0;paint-order:markers stroke fill"><path
           d="m 129.85198,139.49688 q 0.889,0 1.61925,0.34925 0.73025,0.3175 1.23825,0.889 0.53975,0.5715 0.8255,1.36525 0.3175,0.762 0.3175,1.651 v 3.71475 3.7465 4.09575 h -1.04775 v -1.30175 q -0.60325,0.66675 -1.42875,1.0795 -0.8255,0.381 -1.778,0.381 -0.889,0 -1.68275,-0.3175 -0.762,-0.34925 -1.3335,-0.92075 -0.5715,-0.5715 -0.92075,-1.3335 -0.3175,-0.79375 -0.3175,-1.68275 v -0.889 q 0,-1.9685 2.413,-2.8575 0.28575,-0.127 0.9525,-0.381 0.6985,-0.254 1.4605,-0.53975 0.79375,-0.3175 1.524,-0.5715 0.73025,-0.28575 1.11125,-0.4445 v -1.778 q 0,-1.3335 -0.8255,-2.25425 -0.79375,-0.9525 -2.12725,-0.9525 -0.66675,0 -1.23825,0.254 -0.5715,0.254 -1.016,0.6985 -0.4445,0.41275 -0.6985,1.016 -0.254,0.5715 -0.254,1.23825 h -1.04775 q 0,-0.889 0.3175,-1.651 0.34925,-0.79375 0.92075,-1.36525 0.5715,-0.5715 1.3335,-0.889 0.79375,-0.34925 1.68275,-0.34925 z m 2.95275,7.96925 v -0.79375 q -0.47625,0.1905 -1.17475,0.4445 -0.6985,0.254 -1.397,0.53975 -0.6985,0.254 -1.27,0.47625 -0.5715,0.22225 -0.8255,0.3175 -0.60325,0.22225 -1.17475,0.66675 -0.5715,0.4445 -0.5715,1.2065 v 0.889 q 0,0.66675 0.254,1.27 0.254,0.5715 0.66675,1.016 0.4445,0.41275 1.016,0.66675 0.60325,0.254 1.27,0.254 0.66675,0 1.23825,-0.254 0.60325,-0.254 1.016,-0.66675 0.4445,-0.4445 0.6985,-1.016 0.254,-0.60325 0.254,-1.27 z"
           id="path416" /><path
           d="m 137.59894,147.46613 v 3.7465 q 0,0.66675 0.22225,1.27 0.22225,0.5715 0.60325,1.016 0.381,0.41275 0.889,0.66675 0.508,0.254 1.0795,0.254 v 1.04775 q -0.79375,0 -1.49225,-0.3175 -0.6985,-0.34925 -1.23825,-0.92075 -0.508,-0.5715 -0.8255,-1.3335 -0.28575,-0.79375 -0.28575,-1.68275 v -3.7465 -6.76275 -1.04775 -4.445 h 1.04775 v 4.445 h 3.429 v 1.04775 h -3.429 z"
           id="path418" /><path
           d="m 147.12394,139.49688 q 0.889,0 1.61925,0.34925 0.73025,0.3175 1.23825,0.889 0.53975,0.5715 0.8255,1.36525 0.3175,0.762 0.3175,1.651 v 3.71475 3.7465 4.09575 h -1.04775 v -1.30175 q -0.60325,0.66675 -1.42875,1.0795 -0.8255,0.381 -1.778,0.381 -0.889,0 -1.68275,-0.3175 -0.762,-0.34925 -1.3335,-0.92075 -0.5715,-0.5715 -0.92075,-1.3335 -0.3175,-0.79375 -0.3175,-1.68275 v -0.889 q 0,-1.9685 2.413,-2.8575 0.28575,-0.127 0.9525,-0.381 0.6985,-0.254 1.4605,-0.53975 0.79375,-0.3175 1.524,-0.5715 0.73025,-0.28575 1.11125,-0.4445 v -1.778 q 0,-1.3335 -0.8255,-2.25425 -0.79375,-0.9525 -2.12725,-0.9525 -0.66675,0 -1.23825,0.254 -0.5715,0.254 -1.016,0.6985 -0.4445,0.41275 -0.6985,1.016 -0.254,0.5715 -0.254,1.23825 h -1.04775 q 0,-0.889 0.3175,-1.651 0.34925,-0.79375 0.92075,-1.36525 0.5715,-0.5715 1.3335,-0.889 0.79375,-0.34925 1.68275,-0.34925 z m 2.95275,7.96925 v -0.79375 q -0.47625,0.1905 -1.17475,0.4445 -0.6985,0.254 -1.397,0.53975 -0.6985,0.254 -1.27,0.47625 -0.5715,0.22225 -0.8255,0.3175 -0.60325,0.22225 -1.17475,0.66675 -0.5715,0.4445 -0.5715,1.2065 v 0.889 q 0,0.66675 0.254,1.27 0.254,0.5715 0.66675,1.016 0.4445,0.41275 1.016,0.66675 0.60325,0.254 1.27,0.254 0.66675,0 1.23825,-0.254 0.60325,-0.254 1.016,-0.66675 0.4445,-0.4445 0.6985,-1.016 0.254,-0.60325 0.254,-1.27 z"
           id="path420"
           inkscape:transform-center-y="-5.751812" /><path
           d="m 154.39467,155.30838 h -1.04775 v -22.76475 h 1.04775 z"
           id="path422" /><path
           d="m 161.18914,155.46713 q -0.889,0 -1.68275,-0.3175 -0.762,-0.34925 -1.3335,-0.92075 -0.5715,-0.5715 -0.92075,-1.3335 -0.3175,-0.79375 -0.3175,-1.68275 v -7.46125 q 0,-0.889 0.3175,-1.651 0.34925,-0.79375 0.92075,-1.36525 0.5715,-0.5715 1.3335,-0.889 0.79375,-0.34925 1.68275,-0.34925 0.889,0 1.651,0.34925 0.79375,0.3175 1.36525,0.889 0.5715,0.5715 0.889,1.36525 0.34925,0.762 0.34925,1.651 v 7.46125 q 0,0.889 -0.34925,1.68275 -0.3175,0.762 -0.889,1.3335 -0.5715,0.5715 -1.36525,0.92075 -0.762,0.3175 -1.651,0.3175 z m 0,-14.9225 q -0.66675,0 -1.27,0.254 -0.5715,0.254 -1.016,0.6985 -0.41275,0.41275 -0.66675,1.016 -0.254,0.5715 -0.254,1.23825 v 7.46125 q 0,0.66675 0.254,1.27 0.254,0.5715 0.66675,1.016 0.4445,0.41275 1.016,0.66675 0.60325,0.254 1.27,0.254 0.66675,0 1.23825,-0.254 0.60325,-0.254 1.016,-0.66675 0.4445,-0.4445 0.6985,-1.016 0.254,-0.60325 0.254,-1.27 v -7.46125 q 0,-0.66675 -0.254,-1.23825 -0.254,-0.60325 -0.6985,-1.016 -0.41275,-0.4445 -1.016,-0.6985 -0.5715,-0.254 -1.23825,-0.254 z"
           id="path424" /><path
           d="m 176.17512,139.65563 v 4.09575 7.46125 7.20725 q 0,0.889 -0.34925,1.651 -0.3175,0.79375 -0.889,1.36525 -0.5715,0.5715 -1.36525,0.889 -0.762,0.34925 -1.651,0.34925 -0.889,0 -1.68275,-0.34925 -0.762,-0.3175 -1.3335,-0.889 -0.5715,-0.5715 -0.92075,-1.36525 -0.3175,-0.762 -0.3175,-1.651 h 1.04775 q 0,0.66675 0.254,1.23825 0.254,0.5715 0.66675,1.016 0.4445,0.4445 1.016,0.6985 0.60325,0.254 1.27,0.254 0.66675,0 1.23825,-0.254 0.60325,-0.254 1.016,-0.6985 0.4445,-0.4445 0.6985,-1.016 0.254,-0.5715 0.254,-1.23825 v -4.41325 q -0.60325,0.66675 -1.42875,1.0795 -0.8255,0.381 -1.778,0.381 -0.889,0 -1.68275,-0.3175 -0.762,-0.34925 -1.3335,-0.92075 -0.5715,-0.5715 -0.92075,-1.3335 -0.3175,-0.79375 -0.3175,-1.68275 v -7.46125 q 0,-0.889 0.3175,-1.651 0.34925,-0.79375 0.92075,-1.36525 0.5715,-0.5715 1.3335,-0.889 0.79375,-0.34925 1.68275,-0.34925 0.9525,0 1.778,0.381 0.8255,0.381 1.42875,1.0795 v -1.30175 z m -4.2545,14.76375 q 0.66675,0 1.23825,-0.254 0.60325,-0.254 1.016,-0.66675 0.4445,-0.4445 0.6985,-1.016 0.254,-0.60325 0.254,-1.27 v -7.46125 q 0,-0.66675 -0.254,-1.23825 -0.254,-0.60325 -0.6985,-1.016 -0.41275,-0.4445 -1.016,-0.6985 -0.5715,-0.254 -1.23825,-0.254 -0.66675,0 -1.27,0.254 -0.5715,0.254 -1.016,0.6985 -0.41275,0.41275 -0.66675,1.016 -0.254,0.5715 -0.254,1.23825 v 7.46125 q 0,0.66675 0.254,1.27 0.254,0.5715 0.66675,1.016 0.4445,0.41275 1.016,0.66675 0.60325,0.254 1.27,0.254 z"
           id="path426" /></g><path
         style="font-size:45.8611px;font-family:Simplifica;-inkscape-font-specification:Simplifica;fill:#2ca089;stroke:#777171;stroke-width:1.3;stroke-dasharray:none;paint-order:markers stroke fill"
         d="m 106.57041,123.58437 6.69571,31.00224 h 2.01797 1.30121 1.30173 l 6.74119,-31.00224 h -1.30121 -1.30121 -1.5596 l -4.88497,22.47149 -4.8488,-22.47149 h -1.30121 -1.30121 z"
         id="path581" /><path
         style="font-size:45.8611px;font-family:Simplifica;-inkscape-font-specification:Simplifica;fill:#2ca089;stroke:#777171;stroke-width:1.3;stroke-dasharray:none;paint-order:markers stroke fill"
         d="m 95.310121,123.38696 c -0.917221,0 -1.788295,0.18347 -2.613794,0.55036 -0.794925,0.33631 -1.498468,0.81013 -2.109949,1.42162 -0.580906,0.5809 -1.05473,1.28393 -1.421618,2.10943 -0.336315,0.79492 -0.504362,1.6511 -0.504362,2.56832 0,1.16181 0.168047,2.18603 0.504362,3.07268 0.366888,0.88664 0.82581,1.69708 1.376143,2.43086 0.580907,0.73378 1.222778,1.42138 1.925981,2.06344 0.733777,0.61148 1.467639,1.20761 2.201416,1.78852 0.733777,0.5809 1.436803,1.17703 2.109432,1.78852 0.703202,0.58091 1.314754,1.2233 1.834513,1.9265 0.550332,0.67263 0.978419,1.42139 1.284159,2.24689 0.336316,0.8255 0.504366,1.75825 0.504366,2.79776 0,0.70321 -0.13722,1.37591 -0.412381,2.01797 -0.275167,0.61147 -0.642098,1.14645 -1.100708,1.60507 -0.454796,0.45479 -0.985467,0.81908 -1.590601,1.09347 -0.592942,-0.27282 -1.113712,-0.63209 -1.561145,-1.07952 -0.45861,-0.45861 -0.825542,-0.99359 -1.100708,-1.60507 -0.275166,-0.64205 -0.412895,-1.31476 -0.412895,-2.01797 h -1.301212 -1.301213 -1.44539 c -1.2e-5,-0.005 -5.16e-4,-0.009 -5.16e-4,-0.0139 h -1.513603 c 0,0.91723 0.168047,1.7883 0.504362,2.61379 0.366888,0.79492 0.840712,1.49847 1.421618,2.10995 0.611481,0.58091 1.315024,1.05474 2.109949,1.42162 0.825499,0.33631 1.696573,0.50436 2.613794,0.50436 0.223304,0 0.442819,-0.0105 0.658875,-0.0305 0.258723,0.0284 0.520568,0.0444 0.787032,0.0444 0.220101,0 0.436514,-0.0101 0.649572,-0.0295 0.21472,0.0194 0.432161,0.0295 0.652157,0.0295 0.219939,0 0.436149,-0.0101 0.649056,-0.0295 0.214733,0.0194 0.432146,0.0295 0.652157,0.0295 0.91722,0 1.77339,-0.16805 2.56832,-0.50437 0.79492,-0.36688 1.48253,-0.84071 2.06344,-1.42161 0.61148,-0.61149 1.08582,-1.31451 1.42213,-2.10944 0.36689,-0.82549 0.55036,-1.69708 0.55036,-2.61431 0,-1.22296 -0.18347,-2.30833 -0.55036,-3.25613 -0.36689,-0.97836 -0.85613,-1.84944 -1.46761,-2.61379 -0.5809,-0.79493 -1.25361,-1.51389 -2.01796,-2.15594 -0.73378,-0.67263 -1.48306,-1.3145 -2.24741,-1.92598 -0.703203,-0.55034 -1.390811,-1.10073 -2.06344,-1.65107 -0.642054,-0.5809 -1.223288,-1.19246 -1.743046,-1.83451 -0.489185,-0.64205 -0.886435,-1.32966 -1.192175,-2.06344 -0.30574,-0.76435 -0.458887,-1.63594 -0.458887,-2.61431 0,-0.70321 0.137729,-1.36049 0.412895,-1.97197 0.275166,-0.61148 0.642098,-1.14646 1.100708,-1.60507 0.454797,-0.45479 0.98495,-0.81909 1.590084,-1.09348 0.592941,0.27283 1.114229,0.6321 1.561662,1.07952 0.45861,0.45862 0.825541,0.9936 1.100708,1.60507 0.275161,0.61148 0.412381,1.26877 0.412381,1.97198 h 1.44539 c 1e-5,0.005 5.1e-4,0.009 5.1e-4,0.014 h 1.51361 1.30121 1.30173 c 0,-0.91722 -0.18347,-1.77339 -0.55036,-2.56832 -0.33631,-0.8255 -0.81065,-1.52852 -1.42213,-2.10943 -0.58091,-0.61149 -1.26852,-1.08531 -2.06344,-1.42162 -0.79493,-0.36689 -1.6511,-0.55035 -2.56832,-0.55035 -0.220014,0 -0.437421,0.0109 -0.652157,0.032 -0.21291,-0.0211 -0.429114,-0.032 -0.649056,-0.032 -0.219999,0 -0.437434,0.0109 -0.652157,0.032 -0.213061,-0.0211 -0.429468,-0.032 -0.649572,-0.032 -0.225613,0 -0.448113,0.0109 -0.668177,0.0331 -0.254345,-0.0305 -0.513214,-0.047 -0.77773,-0.047 z"
         id="path1455" /></g></g></svg>
